<svg width="24" height="24" viewBox="0 0 24 24" fill="none" xmlns="http://www.w3.org/2000/svg">
<path d="M23.353 5.10763C23.353 4.80315 23.1691 4.52881 22.8875 4.41308L12.2821 0.0563145C12.0993 -0.0187715 11.8943 -0.0187715 11.7115 0.0563145L1.10616 4.41308C0.824539 4.52876 0.640625 4.80315 0.640625 5.10763V18.8924C0.640625 19.1968 0.824492 19.4712 1.10616 19.5869L11.7115 23.9437C11.8924 24.018 12.0956 24.0196 12.2812 23.9436C12.2903 23.9406 11.8887 24.1053 22.8875 19.5869C23.1691 19.4712 23.353 19.1968 23.353 18.8924V5.10763ZM11.9968 8.71579L8.08915 7.1105L16.534 3.42655L20.703 5.13921L11.9968 8.71579ZM2.14234 6.29098L5.51375 7.67599V11.5835C5.51375 11.9981 5.84995 12.3343 6.26461 12.3343C6.67927 12.3343 7.01547 11.9981 7.01547 11.5835V8.29291L11.246 10.0308V22.1289L2.14234 18.3891V6.29098ZM11.9968 1.56259L14.5998 2.6319L6.15489 6.31585L3.2906 5.13916L11.9968 1.56259ZM12.7477 10.0308L21.8513 6.29098V18.3891L12.7477 22.1289V10.0308Z" fill="#89C249"/>
</svg>
