<svg width="172" height="49" viewBox="0 0 172 49" fill="none" xmlns="http://www.w3.org/2000/svg">
<path fill-rule="evenodd" clip-rule="evenodd" d="M3.89419 14.528V34.4162L13.4245 40.0249V44.5142L0.00911989 36.6483H0V12.0633L17.2594 2.27541L17.2001 2.24121L21.051 0L25.7819 2.82717V2.97308V10.6087L30.506 13.3834H30.5585V13.4176L35.3145 16.2106V20.709L30.5585 17.916V35.2529L26.6711 37.7176V15.6315L21.8969 12.8317H21.8877V5.02278L21.0875 4.53943L3.89419 14.528ZM41.3792 11.9265H41.3884V36.6414L21.2334 48.3445V48.3537L15.554 45.0454V22.7063L12.7268 29.2384L10.0045 22.9388V35.0113L6.11033 32.8225V15.7432C7.60143 14.9156 9.24757 14.1586 10.4195 13.5727L12.9708 20.9233L15.5563 10.6087L19.4482 8.17826V42.8179L21.2311 43.853L37.4919 34.4162V14.1495L27.9616 8.54078V4.04923L41.3792 11.9265Z" fill="white"/>
<path d="M52.7553 21.094V1.4224H58.9933L62.6891 14.84L66.3348 1.4224H72.6002V21.0963H68.7402L68.7311 5.61072L64.6727 21.0963H60.6668L56.6244 5.60844L56.6062 21.094H52.7553ZM95.3247 21.094H90.8263L89.0502 16.6139H80.7853L79.0799 21.094H74.6681L82.664 1.42012H87.0666L95.3247 21.094ZM87.6982 13.2874L84.8368 6.01427L82.0529 13.2874H87.6982ZM96.4441 14.7169L100.502 14.3293C100.744 15.6312 101.234 16.5774 101.975 17.1816C102.725 17.7926 103.724 18.0958 104.983 18.0958C106.319 18.0958 107.326 17.8291 107.999 17.2865C108.672 16.7438 109.016 16.1146 109.016 15.3918C109.016 14.9267 108.87 14.53 108.585 14.2017C108.309 13.8733 107.81 13.5906 107.094 13.3581C106.611 13.1939 105.509 12.9089 103.786 12.4962C101.563 11.9627 100.012 11.3152 99.114 10.54C97.8463 9.45475 97.2193 8.13693 97.2193 6.5683C97.2193 5.56968 97.5203 4.63033 98.1062 3.75026C98.7013 2.87931 99.554 2.21584 100.673 1.75984C101.793 1.29473 103.129 1.07129 104.716 1.07129C107.292 1.07129 109.23 1.61392 110.532 2.70831C111.834 3.8027 112.513 5.2596 112.584 7.08586L108.414 7.22266C108.234 6.20579 107.853 5.47392 107.276 5.03388C106.699 4.58473 105.819 4.36129 104.666 4.36129C103.469 4.36129 102.529 4.60297 101.848 5.0772C101.417 5.38728 101.193 5.79311 101.193 6.30839C101.193 6.7735 101.401 7.17022 101.813 7.49853C102.331 7.92945 103.606 8.36948 105.623 8.82548C107.639 9.27463 109.13 9.75571 110.097 10.2391C111.07 10.7293 111.82 11.3927 112.372 12.2386C112.915 13.0822 113.191 14.1333 113.191 15.3758C113.191 16.4953 112.862 17.5555 112.208 18.5382C111.554 19.5208 110.623 20.2527 109.424 20.7361C108.227 21.2103 106.736 21.452 104.944 21.452C102.342 21.452 100.343 20.8843 98.9453 19.7283C97.5476 18.5792 96.72 16.9148 96.4441 14.7169ZM121.357 21.094V4.74661H115.256V1.4224H131.594V4.74889H125.527V21.0963H121.357V21.094ZM134.292 21.094V1.4224H149.536V4.74889H138.462V9.11731H148.76V12.4438H138.462V17.7698H149.939V21.0963H134.292V21.094ZM153.482 21.094V1.4224H162.237C164.435 1.4224 166.038 1.60252 167.037 1.95592C168.035 2.30931 168.838 2.93859 169.433 3.83462C170.037 4.73977 170.338 5.77259 170.338 6.93766C170.338 8.41964 169.882 9.63487 168.977 10.5925C168.072 11.5569 166.72 12.1611 164.919 12.4096C165.815 12.9089 166.556 13.4607 167.132 14.0649C167.718 14.6599 168.503 15.727 169.494 17.2523L172.002 21.0963H167.03L164.048 16.794C162.978 15.2687 162.246 14.3111 161.85 13.9167C161.453 13.5222 161.04 13.2441 160.6 13.0981C160.151 12.9522 159.453 12.8838 158.498 12.8838H157.655V21.0963H153.482V21.094ZM157.652 9.74659H160.728C162.718 9.74659 163.959 9.66907 164.46 9.50491C164.962 9.34075 165.347 9.06487 165.623 8.66816C165.908 8.28056 166.045 7.78125 166.045 7.1953C166.045 6.53182 165.865 5.99831 165.493 5.58336C165.122 5.17752 164.597 4.91988 163.925 4.81728C163.589 4.77397 162.579 4.74889 160.892 4.74889H157.652V9.74659ZM59.3991 47.9977V30.6425H52.6094V28.3329H68.9226V30.6425H62.1328V47.9977H59.3991ZM67.3448 47.9977L75.2472 28.3329H78.2363L86.6197 47.9977H83.5258L81.1387 42.0356H72.4702L70.229 47.9977H67.3448ZM73.2728 39.9243H80.2882L78.1428 34.4706C77.4976 32.8154 77.0051 31.4451 76.6608 30.3689C76.3849 31.6526 76.0065 32.9111 75.5322 34.1514L73.2728 39.9243ZM87.9558 38.4241C87.9558 35.166 88.8701 32.617 90.7054 30.7725C92.5408 28.9189 94.9097 28.0069 97.8144 28.0069C99.7182 28.0069 101.433 28.4378 102.958 29.3088C104.483 30.1706 105.646 31.3767 106.449 32.9271C107.249 34.4775 107.655 36.2353 107.655 38.2007C107.655 40.1911 107.233 41.974 106.387 43.5426C105.544 45.1204 104.353 46.3082 102.81 47.1199C101.259 47.9293 99.5859 48.326 97.803 48.326C95.8559 48.326 94.1322 47.8769 92.5978 46.9899C91.0725 46.0939 89.9189 44.8787 89.1254 43.3283C88.3434 41.7848 87.9558 40.1569 87.9558 38.4241ZM90.7738 38.4765C90.7738 40.8386 91.4373 42.7082 92.7734 44.0602C94.1003 45.4213 95.7715 46.103 97.7893 46.103C99.8413 46.103 101.522 45.4213 102.855 44.0442C104.173 42.674 104.837 40.7177 104.837 38.1938C104.837 36.6001 104.552 35.2048 103.984 34.0146C103.423 32.8245 102.596 31.8942 101.501 31.2399C100.407 30.5855 99.1915 30.2572 97.8304 30.2572C95.8992 30.2572 94.2462 30.8865 92.8577 32.1519C91.4647 33.4173 90.7738 35.5194 90.7738 38.4765Z" fill="white"/>
<rect x="114.227" y="27.8154" width="57.6833" height="20.5198" fill="#89C249"/>
<path d="M123.09 43.0771C121.598 43.0771 120.354 42.6019 119.36 41.6517C118.365 40.6915 117.867 39.4591 117.867 37.9545C117.867 36.45 118.365 35.2225 119.36 34.2723C120.354 33.3121 121.598 32.832 123.09 32.832C124.822 32.832 126.155 33.5744 127.09 35.0592L125.598 35.8165C125.349 35.3908 124.996 35.0444 124.538 34.7771C124.09 34.5098 123.608 34.3762 123.09 34.3762C122.106 34.3762 121.285 34.7128 120.628 35.3859C119.981 36.059 119.658 36.9152 119.658 37.9545C119.658 38.9939 119.981 39.8501 120.628 40.5232C121.285 41.1963 122.106 41.5329 123.09 41.5329C123.618 41.5329 124.105 41.3993 124.553 41.132C125.001 40.8647 125.349 40.5183 125.598 40.0926L127.09 40.8499C126.135 42.3347 124.802 43.0771 123.09 43.0771Z" fill="white"/>
<path d="M137.369 42.8989H135.384L134.653 40.9984H130.086L129.355 42.8989H127.37L131.28 32.9954H133.459L137.369 42.8989ZM134.16 39.469L132.369 34.7474L130.579 39.469H134.16Z" fill="white"/>
<path d="M146.157 42.8989H144.142L141.933 39.2018H140.202V42.8989H138.456V32.9954H142.829C143.804 32.9954 144.59 33.2824 145.187 33.8565C145.784 34.4307 146.082 35.178 146.082 36.0986C146.082 36.93 145.853 37.5982 145.396 38.103C144.938 38.598 144.381 38.8999 143.724 39.0087L146.157 42.8989ZM142.59 37.6724C143.087 37.6724 143.495 37.5289 143.814 37.2418C144.132 36.9548 144.291 36.5737 144.291 36.0986C144.291 35.6234 144.132 35.2423 143.814 34.9553C143.495 34.6682 143.087 34.5247 142.59 34.5247H140.202V37.6724H142.59Z" fill="white"/>
<path d="M152.603 43.0919C151.13 43.0919 149.892 42.6168 148.887 41.6665C147.882 40.7163 147.379 39.4789 147.379 37.9545C147.379 36.4302 147.882 35.1978 148.887 34.2574C149.892 33.3072 151.13 32.832 152.603 32.832C154.314 32.832 155.652 33.52 156.617 34.8959L155.184 35.6977C154.906 35.3116 154.538 34.9949 154.08 34.7474C153.632 34.4999 153.14 34.3762 152.603 34.3762C151.618 34.3762 150.797 34.7128 150.14 35.3859C149.494 36.059 149.17 36.9152 149.17 37.9545C149.17 38.9939 149.494 39.8551 150.14 40.5381C150.797 41.2112 151.618 41.5477 152.603 41.5477C153.07 41.5477 153.513 41.4586 153.931 41.2805C154.359 41.1023 154.702 40.8944 154.961 40.6569V39.1127H151.991V37.5834H156.707V41.2953C155.622 42.493 154.254 43.0919 152.603 43.0919Z" fill="white"/>
<path d="M166.822 41.6368C165.867 42.597 164.648 43.0771 163.166 43.0771C161.683 43.0771 160.464 42.597 159.509 41.6368C158.554 40.6668 158.077 39.4393 158.077 37.9545C158.077 36.4698 158.554 35.2473 159.509 34.2871C160.464 33.3171 161.683 32.832 163.166 32.832C164.648 32.832 165.867 33.3171 166.822 34.2871C167.777 35.2473 168.255 36.4698 168.255 37.9545C168.255 39.4393 167.777 40.6668 166.822 41.6368ZM163.166 41.5329C164.151 41.5329 164.947 41.1963 165.553 40.5232C166.16 39.8402 166.464 38.984 166.464 37.9545C166.464 36.9152 166.16 36.059 165.553 35.3859C164.947 34.7128 164.151 34.3762 163.166 34.3762C162.171 34.3762 161.37 34.7128 160.763 35.3859C160.166 36.059 159.867 36.9152 159.867 37.9545C159.867 38.9939 160.166 39.8501 160.763 40.5232C161.37 41.1963 162.171 41.5329 163.166 41.5329Z" fill="white"/>
</svg>
