<svg width="27" height="27" viewBox="0 0 27 27" fill="none" xmlns="http://www.w3.org/2000/svg">
<path d="M13.5 26.5781C6.27539 26.5781 0.421874 20.7246 0.421874 13.5C0.421875 6.27539 6.27539 0.421875 13.5 0.421876C20.7246 0.421876 26.5781 6.27539 26.5781 13.5C26.5781 20.7246 20.7246 26.5781 13.5 26.5781ZM24.8906 13.5C24.8906 7.24043 19.8229 2.10938 13.5 2.10938C7.24043 2.10938 2.10937 7.17715 2.10937 13.5C2.10937 19.7596 7.17715 24.8906 13.5 24.8906C19.7596 24.8906 24.8906 19.8229 24.8906 13.5ZM20.0127 12.8408L13.9482 6.77109C13.7004 6.52324 13.2996 6.52324 13.0518 6.77109L6.9873 12.8408C6.73945 13.0887 6.73945 13.4895 6.9873 13.7373L7.35117 14.1012C7.59902 14.349 8.01035 14.349 8.25293 14.0906L12.6035 9.58184L12.6035 19.6172C12.6035 19.9652 12.8883 20.25 13.2363 20.25L13.7637 20.25C14.1117 20.25 14.3965 19.9652 14.3965 19.6172L14.3965 9.58184L18.7471 14.0959C18.9949 14.349 19.401 14.3543 19.6488 14.1064L20.0127 13.7426C20.2605 13.4895 20.2605 13.0887 20.0127 12.8408Z" fill="#E58D35"/>
</svg>
