<svg width="34" height="33" viewBox="0 0 34 33" fill="none" xmlns="http://www.w3.org/2000/svg">
<path d="M17 33C26.3888 33 34 25.6127 34 16.5C34 7.3873 26.3888 0 17 0C7.61116 0 0 7.3873 0 16.5C0 25.6127 7.61116 33 17 33Z" fill="url(#paint0_linear_5862_559)"/>
<path d="M20.4358 8.25H13.5642C12.2216 8.25172 10.9346 8.77013 9.98523 9.69155C9.03589 10.613 8.50178 11.8622 8.5 13.1653V19.8347C8.50178 21.1378 9.03589 22.387 9.98523 23.3084C10.9346 24.2299 12.2216 24.7483 13.5642 24.75H20.4358C21.7785 24.7488 23.066 24.2306 24.0154 23.3091C24.9649 22.3875 25.4988 21.138 25.5 19.8347V13.1653C25.4982 11.8622 24.9641 10.613 24.0148 9.69155C23.0654 8.77013 21.7784 8.25172 20.4358 8.25ZM23.7911 19.8347C23.7911 20.6984 23.4376 21.5268 22.8083 22.1375C22.1791 22.7482 21.3257 23.0913 20.4358 23.0913H13.5642C12.6743 23.0913 11.8209 22.7482 11.1917 22.1375C10.5624 21.5268 10.2089 20.6984 10.2089 19.8347V13.1653C10.2089 12.3016 10.5624 11.4732 11.1917 10.8625C11.8209 10.2518 12.6743 9.90868 13.5642 9.90868H20.4358C21.3257 9.90868 22.1791 10.2518 22.8083 10.8625C23.4376 11.4732 23.7911 12.3016 23.7911 13.1653V19.8347Z" fill="white"/>
<path d="M17.0014 12.2344C16.1315 12.2339 15.2809 12.484 14.5574 12.9528C13.8339 13.4216 13.2699 14.0882 12.9367 14.8683C12.6036 15.6483 12.5163 16.5067 12.686 17.3348C12.8556 18.163 13.2744 18.9237 13.8896 19.5208C14.5048 20.1179 15.2885 20.5244 16.1418 20.6891C16.9951 20.8537 17.8795 20.769 18.6831 20.4456C19.4868 20.1223 20.1736 19.5749 20.6566 18.8727C21.1397 18.1704 21.3973 17.3449 21.3968 16.5005C21.3956 15.3694 20.9322 14.285 20.1081 13.4852C19.2841 12.6854 18.1668 12.2355 17.0014 12.2344ZM17.0014 19.1058C16.4705 19.1058 15.9516 18.953 15.5102 18.6667C15.0687 18.3804 14.7247 17.9735 14.5215 17.4975C14.3184 17.0214 14.2652 16.4976 14.3688 15.9922C14.4724 15.4869 14.728 15.0227 15.1034 14.6583C15.4788 14.2939 15.9571 14.0458 16.4778 13.9453C16.9985 13.8448 17.5382 13.8964 18.0286 14.0935C18.5191 14.2907 18.9383 14.6247 19.2333 15.0531C19.5282 15.4815 19.6856 15.9852 19.6856 16.5005C19.6856 17.1915 19.4028 17.8541 18.8995 18.3427C18.3961 18.8313 17.7133 19.1058 17.0014 19.1058Z" fill="white"/>
<path d="M21.423 13.29C22.0234 13.29 22.5102 12.8176 22.5102 12.2348C22.5102 11.6521 22.0234 11.1797 21.423 11.1797C20.8227 11.1797 20.3359 11.6521 20.3359 12.2348C20.3359 12.8176 20.8227 13.29 21.423 13.29Z" fill="white"/>
<defs>
<linearGradient id="paint0_linear_5862_559" x1="17" y1="32.848" x2="17" y2="2.23618" gradientUnits="userSpaceOnUse">
<stop stop-color="#E09B3D"/>
<stop offset="0.24" stop-color="#C74C4D"/>
<stop offset="0.65" stop-color="#C21975"/>
<stop offset="1" stop-color="#7024C4"/>
</linearGradient>
</defs>
</svg>
