<svg width="50" height="50" viewBox="0 0 50 50" fill="none" xmlns="http://www.w3.org/2000/svg">
<path d="M25 12.3047C24.461 12.3047 24.0234 12.7422 24.0234 13.2812C24.0234 13.8203 24.461 14.2578 25 14.2578C25.539 14.2578 25.9766 13.8203 25.9766 13.2812C25.9766 12.7422 25.539 12.3047 25 12.3047Z" fill="white"/>
<path d="M8.78906 29.8828C9.32808 29.8828 9.76562 29.4453 9.76562 28.9062C9.76562 28.3672 9.32808 27.9297 8.78906 27.9297C8.25005 27.9297 7.8125 28.3672 7.8125 28.9062C7.8125 29.4453 8.25005 29.8828 8.78906 29.8828Z" fill="white"/>
<path d="M32.8125 2.53906C24.0208 2.53906 16.8049 8.60062 16.2468 16.2357C7.87392 16.6557 0 22.6933 0 30.8594C0 34.272 1.3504 37.5786 3.80859 40.1985C4.29497 42.2035 3.70445 44.3287 2.23923 45.7939C1.95999 46.0732 1.87645 46.4931 2.02751 46.8582C2.17857 47.2229 2.53448 47.4609 2.92969 47.4609C5.7148 47.4609 8.39882 46.3688 10.3931 44.4443C12.336 45.1065 14.8708 45.5078 17.1875 45.5078C25.9781 45.5078 33.1932 39.4478 33.7528 31.8142C35.7975 31.7234 37.9242 31.3457 39.6069 30.7724C41.6012 32.6969 44.2852 33.7891 47.0703 33.7891C47.4655 33.7891 47.8214 33.551 47.9725 33.1863C48.1236 32.8213 48.04 32.4013 47.7608 32.122C46.2955 30.6568 45.705 28.5316 46.1914 26.5266C48.6496 23.9067 50 20.6001 50 17.1875C50 8.70247 41.5195 2.53906 32.8125 2.53906ZM17.1875 43.5547C14.8827 43.5547 12.2562 43.1023 10.4969 42.4023C10.12 42.252 9.68933 42.3508 9.41505 42.6502C8.23593 43.9392 6.7028 44.838 5.03235 45.2511C5.95284 43.4875 6.18782 41.4085 5.62782 39.4386C5.58357 39.2834 5.50156 39.1415 5.38902 39.0259C3.17345 36.7439 1.95312 33.8436 1.95312 30.8594C1.95312 23.9777 8.92944 18.1641 17.1875 18.1641C24.9855 18.1641 31.8359 23.5867 31.8359 30.8594C31.8359 37.8597 25.2647 43.5547 17.1875 43.5547ZM44.611 25.354C44.4984 25.47 44.4164 25.6119 44.3722 25.7668C43.8122 27.7367 44.0472 29.8157 44.9677 31.5792C43.2972 31.1665 41.7641 30.2673 40.5849 28.9783C40.3107 28.6793 39.88 28.5801 39.5031 28.7304C37.9784 29.3369 35.8032 29.7569 33.7498 29.8584C33.4644 26.1654 31.6223 22.6944 28.4729 20.1172H41.2109C41.7503 20.1172 42.1875 19.68 42.1875 19.1406C42.1875 18.6012 41.7503 18.1641 41.2109 18.1641H25.4726C23.2559 17.0357 20.7668 16.3776 18.2049 16.2395C18.766 9.68056 25.1034 4.49219 32.8125 4.49219C41.0706 4.49219 48.0469 10.3058 48.0469 17.1875C48.0469 20.1717 46.8266 23.0721 44.611 25.354Z" fill="white"/>
<path d="M25 27.9297H12.6953C12.1559 27.9297 11.7188 28.3669 11.7188 28.9062C11.7188 29.4456 12.1559 29.8828 12.6953 29.8828H25C25.5394 29.8828 25.9766 29.4456 25.9766 28.9062C25.9766 28.3669 25.5394 27.9297 25 27.9297Z" fill="white"/>
<path d="M25 33.7891H8.78906C8.24966 33.7891 7.8125 34.2262 7.8125 34.7656C7.8125 35.305 8.24966 35.7422 8.78906 35.7422H25C25.5394 35.7422 25.9766 35.305 25.9766 34.7656C25.9766 34.2262 25.5394 33.7891 25 33.7891Z" fill="white"/>
<path d="M41.2109 12.3047H28.9062C28.3669 12.3047 27.9297 12.7419 27.9297 13.2812C27.9297 13.8206 28.3669 14.2578 28.9062 14.2578H41.2109C41.7503 14.2578 42.1875 13.8206 42.1875 13.2812C42.1875 12.7419 41.7503 12.3047 41.2109 12.3047Z" fill="white"/>
</svg>
