<svg width="50" height="50" viewBox="0 0 50 50" fill="none" xmlns="http://www.w3.org/2000/svg">
<g clip-path="url(#clip0_16667_114)">
<path d="M36.3267 21.6446V12.1822C36.3267 11.9114 36.2016 11.6611 36.0246 11.4632L25.4159 0.323105C25.2179 0.114822 24.9364 0 24.6552 0H7.83548C4.73032 0 2.25 2.5322 2.25 5.63774V37.4428C2.25 40.5483 4.73032 43.0389 7.83548 43.0389H21.1121C23.6234 47.2073 28.188 50 33.3878 50C41.2869 50 47.7376 43.5806 47.7376 35.6712C47.7483 28.7621 42.7876 22.9889 36.3267 21.6446ZM25.6974 3.65791L32.8149 11.1504H28.1983C26.8228 11.1504 25.6974 10.0147 25.6974 8.63915V3.65791ZM7.83548 40.9546C5.88693 40.9546 4.33435 39.3913 4.33435 37.4428V5.63774C4.33435 3.67851 5.88693 2.08435 7.83548 2.08435H23.6131V8.63915C23.6131 11.1713 25.6661 13.2347 28.1983 13.2347H34.2423V21.3734C33.9299 21.3631 33.6797 21.3318 33.4088 21.3318C29.7719 21.3318 26.4268 22.7284 23.9049 24.9168H10.6702C10.0968 24.9168 9.62801 25.3857 9.62801 25.9586C9.62801 26.532 10.0968 27.0008 10.6702 27.0008H21.9666C21.2266 28.043 20.6117 29.0852 20.1325 30.2315H10.6702C10.0968 30.2315 9.62801 30.7003 9.62801 31.2737C9.62801 31.8466 10.0968 32.3158 10.6702 32.3158H19.455C19.1945 33.358 19.0591 34.5146 19.0591 35.6712C19.0591 37.5469 19.4238 39.402 20.0803 40.9653H7.83548V40.9546ZM33.3985 47.9263C26.6457 47.9263 21.1537 42.4343 21.1537 35.6815C21.1537 28.9288 26.6351 23.4367 33.3985 23.4367C40.1616 23.4367 45.6429 28.9288 45.6429 35.6815C45.6429 42.4343 40.1513 47.9263 33.3985 47.9263Z" fill="white"/>
<path d="M10.6672 21.7797H21.2236C21.7969 21.7797 22.2658 21.3105 22.2658 20.7375C22.2658 20.1641 21.7969 19.6953 21.2236 19.6953H10.6672C10.0938 19.6953 9.625 20.1641 9.625 20.7375C9.625 21.3105 10.0938 21.7797 10.6672 21.7797Z" fill="white"/>
<path d="M39.0638 30.9924L31.1853 38.2037L27.3298 34.0144C26.9441 33.5872 26.2769 33.5666 25.8604 33.9518C25.4331 34.3375 25.4121 35.0047 25.7978 35.4213L30.3621 40.3712C30.5704 40.5902 30.8519 40.705 31.1334 40.705C31.3833 40.705 31.6335 40.6112 31.8418 40.4338L40.481 32.5141C40.9082 32.1284 40.9395 31.4612 40.5435 31.0447C40.1476 30.6277 39.4911 30.5964 39.0638 30.9924Z" fill="white"/>
</g>
<defs>
<clipPath id="clip0_16667_114">
<rect width="50" height="50" fill="white"/>
</clipPath>
</defs>
</svg>
