<svg width="34" height="33" viewBox="0 0 34 33" fill="none" xmlns="http://www.w3.org/2000/svg">
<path d="M17 33C26.3888 33 34 25.6127 34 16.5C34 7.3873 26.3888 0 17 0C7.61116 0 0 7.3873 0 16.5C0 25.6127 7.61116 33 17 33Z" fill="#039BE5"/>
<path d="M7.78246 16.1425L24.1733 10.0087C24.9341 9.74192 25.5985 10.1888 25.352 11.3053L25.3534 11.3039L22.5626 24.0653C22.3557 24.97 21.8018 25.19 21.0269 24.7638L16.7769 21.7237L14.727 23.6404C14.5003 23.8604 14.309 24.046 13.8699 24.046L14.1716 19.8482L22.0483 12.9415C22.3911 12.6487 21.9718 12.4837 21.5199 12.7752L11.786 18.7234L7.5898 17.4529C6.67888 17.1724 6.65905 16.5688 7.78246 16.1425Z" fill="white"/>
</svg>
