<svg width="50" height="50" viewBox="0 0 50 50" fill="none" xmlns="http://www.w3.org/2000/svg">
<g clip-path="url(#clip0_16667_175)">
<path d="M49.1114 9.45599C48.4636 8.69017 47.5564 8.2224 46.5567 8.1389L11.3461 5.19888C10.3463 5.11538 9.37428 5.42622 8.60837 6.07397C7.84558 6.71918 7.37849 7.62182 7.29236 8.61664L6.58396 15.2627H3.75536C1.68466 15.2627 0 16.9474 0 19.0181V41.0592C0 43.1299 1.68466 44.8146 3.75536 44.8146H39.0885C41.1593 44.8146 42.844 43.1299 42.844 41.0592V37.4837L44.0978 37.5884C44.2035 37.5972 44.3087 37.6016 44.413 37.6016C46.3435 37.6016 47.9892 36.1163 48.1527 34.1585L49.9867 12.1939C50.0701 11.1942 49.7593 10.2219 49.1114 9.45599ZM3.75536 17.2158H39.0885C40.0823 17.2158 40.8909 18.0243 40.8909 19.0181V21.0265H1.95312V19.0181C1.95312 18.0243 2.76161 17.2158 3.75536 17.2158ZM1.95312 22.9796H40.8909V27.0312H1.95312V22.9796ZM39.0885 42.8614H3.75536C2.76161 42.8614 1.95312 42.0529 1.95312 41.0592V28.9843H40.8909V41.0592C40.8909 42.0529 40.0823 42.8614 39.0885 42.8614ZM48.0403 12.0313L46.2063 33.9959C46.1236 34.9863 45.2504 35.725 44.2603 35.642L42.844 35.5238V19.0181C42.844 16.9474 41.1593 15.2627 39.0885 15.2627H8.54821L9.23561 8.81351C9.23639 8.80609 9.23707 8.79876 9.23766 8.79125C9.32038 7.80092 10.193 7.06225 11.1837 7.14525L46.3943 10.0853C46.874 10.1253 47.3095 10.3498 47.6203 10.7174C47.9312 11.085 48.0804 11.5515 48.0403 12.0313Z" fill="white"/>
<path d="M36.8049 31.8877H27.4062C26.8669 31.8877 26.4297 32.3249 26.4297 32.8643V38.996C26.4297 39.5354 26.8669 39.9726 27.4062 39.9726H36.8049C37.3442 39.9726 37.7814 39.5354 37.7814 38.996V32.8643C37.7814 32.3249 37.3442 31.8877 36.8049 31.8877ZM35.8283 38.0194H28.3828V33.8408H35.8283V38.0194Z" fill="white"/>
</g>
<defs>
<clipPath id="clip0_16667_175">
<rect width="50" height="50" fill="white"/>
</clipPath>
</defs>
</svg>
