<svg width="47" height="47" viewBox="0 0 47 47" fill="none" xmlns="http://www.w3.org/2000/svg">
<g clip-path="url(#clip0_16667_164)">
<path d="M47 27.9065C47 26.7296 46.5319 25.6329 45.7251 24.8241C46.6397 23.8234 47.1058 22.4819 46.9784 21.0857C46.7493 18.5966 44.507 16.6461 41.8711 16.6461H29.7745C30.3737 14.8268 31.3333 11.4918 31.3333 8.8128C31.3333 4.56517 27.7241 0.979492 25.4583 0.979492C23.4256 0.979492 21.9705 2.12512 21.9098 2.17212C21.6767 2.35819 21.5416 2.64019 21.5416 2.9378V9.57847L15.8997 21.7965L15.6666 21.916V21.5419C15.6666 21.0014 15.2279 20.5627 14.6874 20.5627H4.8958C2.19532 20.5628 0 22.7581 0 25.4586V41.1253C0 43.8259 2.19532 46.0211 4.8958 46.0211H10.7708C12.8877 46.0211 14.6972 44.6699 15.3787 42.784C17.0081 43.6222 19.2014 44.0628 20.5625 44.0628H38.5381C40.6707 44.0628 42.537 42.6254 42.9756 40.6436C43.2008 39.6213 43.0696 38.5932 42.6231 37.7002C44.0684 36.9736 45.0417 35.4794 45.0417 33.7816C45.0417 33.0883 44.8831 32.4244 44.5834 31.8252C46.0287 31.0967 47 29.6044 47 27.9065ZM42.8699 30.3231C42.4919 30.3682 42.1727 30.6247 42.0513 30.987C41.9319 31.3493 42.0318 31.7468 42.3098 32.0092C42.8073 32.4773 43.0834 33.1079 43.0834 33.7816C43.0834 35.0172 42.1493 36.0552 40.9136 36.1981C40.5357 36.2432 40.2164 36.4997 40.095 36.862C39.9756 37.2243 40.0755 37.6218 40.3535 37.8842C40.9979 38.4913 41.2564 39.3432 41.0625 40.2206C40.8216 41.3133 39.7602 42.1045 38.5382 42.1045H20.5625C18.9723 42.1045 16.3051 41.3584 15.3808 40.4321C15.1007 40.154 14.6777 40.0718 14.3134 40.2206C13.9473 40.3714 13.7083 40.7297 13.7083 41.1253C13.7083 42.7449 12.3904 44.0628 10.7708 44.0628H4.8958C3.27623 44.0628 1.9583 42.7449 1.9583 41.1253V25.4586C1.9583 23.839 3.27623 22.5211 4.8958 22.5211H13.7083V23.5003C13.7083 23.8391 13.8846 24.1544 14.1744 24.3346C14.4603 24.5069 14.8206 24.5245 15.1261 24.3757L17.0844 23.3965C17.2822 23.2985 17.4409 23.134 17.5349 22.9324L23.4099 10.2032C23.4686 10.0739 23.4999 9.9329 23.4999 9.7919V3.46847C23.9073 3.2433 24.6143 2.9378 25.4583 2.9378C26.5315 2.9378 29.375 5.60505 29.375 8.8128C29.375 12.2595 27.4989 17.2277 27.4813 17.2767C27.3678 17.5764 27.4069 17.9152 27.589 18.1815C27.7731 18.4459 28.0747 18.6045 28.3958 18.6045H41.8711C43.5044 18.6045 44.8909 19.7736 45.0279 21.2659C45.1317 22.3821 44.5951 23.4436 43.6336 24.0369C43.334 24.221 43.1558 24.5539 43.1695 24.9084C43.1832 25.2628 43.3869 25.58 43.7002 25.7426C44.5286 26.1637 45.0416 26.994 45.0416 27.9065C45.0417 29.1422 44.1076 30.1802 42.8699 30.3231Z" fill="white"/>
<path d="M14.6901 22.5205C14.1496 22.5205 13.7109 22.9592 13.7109 23.4997V41.1247C13.7109 41.6652 14.1496 42.1039 14.6901 42.1039C15.2306 42.1039 15.6693 41.6652 15.6693 41.1247V23.4997C15.6693 22.9592 15.2306 22.5205 14.6901 22.5205Z" fill="white"/>
</g>
<defs>
<clipPath id="clip0_16667_164">
<rect width="47" height="47" fill="white"/>
</clipPath>
</defs>
</svg>
